<svg fill="#000000" xmlns="http://www.w3.org/2000/svg"  viewBox="0 0 50 50" width="50px" height="50px"><path d="M 24.96875 1.984375 C 24.953125 1.988281 24.941406 1.988281 24.933594 1.988281 C 24.917969 1.988281 24.902344 1.992188 24.886719 1.992188 C 24.867188 1.996094 24.847656 2 24.828125 2 C 24.8125 2.003906 24.792969 2.007813 24.777344 2.011719 C 24.773438 2.011719 24.765625 2.015625 24.761719 2.015625 C 24.734375 2.023438 24.707031 2.03125 24.679688 2.039063 C 24.671875 2.042969 24.664063 2.042969 24.65625 2.046875 C 24.636719 2.054688 24.617188 2.0625 24.59375 2.070313 C 24.582031 2.078125 24.570313 2.082031 24.558594 2.089844 C 24.535156 2.101563 24.515625 2.109375 24.496094 2.125 C 24.492188 2.125 24.492188 2.125 24.492188 2.125 C 24.492188 2.125 24.492188 2.125 24.488281 2.125 C 24.292969 2.242188 24.140625 2.425781 24.0625 2.640625 L 6.769531 34.625 C 6.769531 34.628906 6.769531 34.628906 6.765625 34.628906 C 6.746094 34.664063 6.726563 34.699219 6.710938 34.734375 L 4.226563 39.328125 C 3.902344 39.707031 3.90625 40.265625 4.234375 40.640625 L 9.132813 46.519531 C 9.328125 46.867188 9.707031 47.066406 10.105469 47.027344 L 16.859375 47.988281 C 17.390625 48.066406 17.886719 47.707031 17.984375 47.179688 L 19.109375 41 L 30.890625 41 L 32.015625 47.179688 C 32.113281 47.707031 32.609375 48.066406 33.140625 47.988281 L 39.949219 47.015625 C 40.328125 47.039063 40.683594 46.84375 40.875 46.515625 L 45.765625 40.640625 C 45.773438 40.632813 45.777344 40.628906 45.78125 40.621094 C 46.097656 40.246094 46.09375 39.699219 45.773438 39.328125 L 36.792969 22.714844 C 36.757813 22.625 36.714844 22.542969 36.65625 22.46875 L 25.9375 2.632813 C 25.824219 2.335938 25.578125 2.109375 25.269531 2.023438 C 25.269531 2.023438 25.265625 2.023438 25.265625 2.023438 C 25.203125 2.003906 25.136719 1.992188 25.074219 1.988281 C 25.070313 1.988281 25.070313 1.988281 25.066406 1.988281 C 25.035156 1.984375 25 1.984375 24.96875 1.984375 Z M 25 8.59375 L 28.042969 25.324219 L 21.445313 28.148438 Z M 27.109375 9 L 34.449219 22.578125 L 29.929688 24.515625 Z M 22.890625 9.003906 L 19.238281 29.09375 L 9.859375 33.113281 Z M 35.402344 24.34375 L 43.324219 39 L 39.15625 39 C 39.109375 38.992188 39.0625 38.988281 39.015625 38.984375 C 38.957031 38.984375 38.894531 38.988281 38.835938 39 L 32.5625 39 L 30.296875 26.53125 Z M 28.40625 27.34375 L 30.527344 39 L 19.46875 39 L 21.015625 30.511719 Z M 18.808594 31.457031 L 17.4375 39 L 10.421875 39 L 10.101563 35.1875 Z M 8.179688 36.214844 L 8.414063 39 L 6.675781 39 Z M 7.132813 41 L 8.578125 41 L 8.742188 42.925781 Z M 10.585938 41 L 17.074219 41 L 16.1875 45.875 L 10.929688 45.125 Z M 32.925781 41 L 38.152344 41 L 38.84375 45.15625 L 33.8125 45.875 Z M 40.179688 41 L 42.863281 41 L 40.625 43.6875 Z"/></svg>